<svg width="88" height="94" viewBox="0 0 88 94" fill="none" xmlns="http://www.w3.org/2000/svg">
<g clip-path="url(#clip0_58_2)">
<path d="M40.3979 1.08118L40.6789 1.08018L40.9839 1.07918L41.3079 1.07818C41.6609 1.07618 42.0149 1.07518 42.3679 1.07518L43.1069 1.07318C43.6229 1.07218 44.1389 1.07118 44.6549 1.07118C45.3159 1.07018 45.9759 1.06718 46.6359 1.06418C47.1439 1.06218 47.6529 1.06218 48.1619 1.06118C48.4049 1.06118 48.6479 1.06018 48.8909 1.05918C49.2319 1.05718 49.5739 1.05718 49.9149 1.05818L50.2169 1.05518C50.8599 1.05918 51.4459 1.14118 52.0299 1.42618C52.5069 2.00618 52.4859 2.64118 52.4849 3.36218L52.4859 3.65518C52.4869 3.97918 52.4869 4.30418 52.4869 4.62918L52.4889 5.32718C52.4899 5.82818 52.4909 6.32918 52.4919 6.83018C52.4929 7.62318 52.4949 8.41518 52.4979 9.20718C52.5049 11.4602 52.5099 13.7132 52.5139 15.9652C52.5159 17.2092 52.5189 18.4532 52.5239 19.6972C52.5259 20.3562 52.5279 21.0142 52.5279 21.6732C52.5279 22.2922 52.5299 22.9112 52.5329 23.5302C52.5339 23.7582 52.5339 23.9852 52.5339 24.2122C52.5329 24.5222 52.5349 24.8322 52.5369 25.1432L52.5349 25.4162C52.5409 25.9192 52.5869 26.2592 52.9099 26.6532C53.1589 26.7752 53.4159 26.8782 53.6799 26.9622C53.8389 27.0172 53.9989 27.0732 54.1579 27.1292L54.4109 27.2182C57.5769 28.3622 60.5279 30.0282 62.9889 32.3332C63.2169 32.5452 63.4499 32.7472 63.6899 32.9472C64.8829 33.9892 65.8389 35.2542 66.7699 36.5252L66.9159 36.7212C70.0979 41.0592 71.6239 46.5532 71.6269 51.8822C71.6279 52.0562 71.6279 52.2302 71.6289 52.4042C71.6299 52.7762 71.6309 53.1492 71.6319 53.5212C71.6329 54.1112 71.6349 54.7022 71.6379 55.2922C71.6449 56.9692 71.6499 58.6472 71.6539 60.3252C71.6559 61.2532 71.6589 62.1812 71.6639 63.1102C71.6659 63.6002 71.6679 64.0902 71.6679 64.5802C71.6679 65.0412 71.6699 65.5022 71.6729 65.9632C71.6739 66.1312 71.6739 66.2992 71.6739 66.4682C71.6699 68.5182 72.1479 69.9542 73.4189 71.5462C74.3599 72.7422 74.4789 73.9852 74.3599 75.4632C74.1099 76.7222 73.2639 77.6662 72.4139 78.5832C72.1579 78.8652 71.9179 79.1562 71.6789 79.4532C71.2739 79.9532 70.8479 80.4252 70.4089 80.8952C70.0839 81.2462 69.7709 81.6092 69.4719 81.9832C69.0489 82.5072 68.5989 82.9982 68.1389 83.4882C67.7969 83.8542 67.4689 84.2322 67.1549 84.6222C66.7349 85.1442 66.2869 85.6322 65.8289 86.1212C65.4869 86.4862 65.1589 86.8652 64.8449 87.2542C64.4249 87.7772 63.9769 88.2652 63.5189 88.7532C63.1769 89.1192 62.8489 89.4972 62.5349 89.8872C62.1149 90.4082 61.6679 90.8972 61.2099 91.3842C60.8519 91.7662 60.5169 92.1582 60.1909 92.5672C59.7239 93.1462 59.2269 93.7202 58.5199 94.0002C58.2169 94.0282 57.9249 94.0442 57.6219 94.0482L57.3569 94.0532C57.1719 94.0562 56.9869 94.0572 56.8019 94.0592C56.5219 94.0622 56.2419 94.0702 55.9619 94.0782C54.3369 94.1042 54.3369 94.1042 53.6389 93.4422C52.7219 92.3692 52.3519 91.2492 52.2939 89.8552L52.2809 89.5682C52.2289 88.2852 52.2379 87.0022 52.2419 85.7192C52.2429 85.4332 52.2429 85.1472 52.2439 84.8622C52.2449 84.0932 52.2479 83.3242 52.2499 82.5552C52.2519 82.0752 52.2529 81.5942 52.2539 81.1132C52.2579 79.7792 52.2619 78.4442 52.2669 77.1102L52.2679 76.8532L52.2699 76.3362L52.2709 76.0772V75.8182C52.2759 74.4282 52.2799 73.0372 52.2829 71.6462C52.2849 70.2152 52.2899 68.7832 52.2949 67.3512C52.2979 66.5492 52.2999 65.7472 52.3009 64.9442C52.3019 64.1922 52.3049 63.4392 52.3089 62.6862C52.3099 62.4102 52.3109 62.1332 52.3109 61.8572C52.3109 61.4802 52.3129 61.1042 52.3149 60.7272L52.3139 60.3942C52.3199 59.8152 52.3599 59.4002 52.6899 58.9012C53.0959 58.5752 53.4159 58.5302 53.9299 58.5232L54.3329 58.5152C54.4739 58.5132 54.6139 58.5122 54.7589 58.5102C55.0489 58.5032 55.3389 58.4952 55.6289 58.4872L56.0499 58.4752C58.2879 58.3992 60.0449 57.7712 61.6339 56.1382C62.2389 55.4202 62.7099 54.5242 62.9299 53.6122L63.0299 53.1972C62.0609 53.2042 61.0929 53.2122 60.1239 53.2232C59.6739 53.2282 59.2239 53.2322 58.7739 53.2352C58.3389 53.2382 57.9039 53.2422 57.4689 53.2482C57.3039 53.2502 57.1389 53.2512 56.9739 53.2522C54.9019 53.2612 53.1369 53.8262 51.6589 55.3012C50.1319 56.9342 49.7959 58.8052 49.7999 60.9632L49.7979 61.4822C49.7969 61.8522 49.7969 62.2232 49.7959 62.5932C49.7959 63.1792 49.7949 63.7652 49.7919 64.3512C49.7869 65.8052 49.7829 67.2602 49.7809 68.7142C49.7789 69.8462 49.7759 70.9782 49.7719 72.1112C49.7689 72.6932 49.7679 73.2752 49.7689 73.8572C49.7689 74.2192 49.7669 74.5812 49.7649 74.9432C49.7639 75.1112 49.7639 75.2782 49.7649 75.4462C49.7659 75.6752 49.7639 75.9052 49.7619 76.1342V76.5222C49.7039 77.0292 49.5489 77.4582 49.2249 77.8632C48.8769 78.1232 48.5329 78.1102 48.1159 78.1132L47.7339 78.1172L47.3209 78.1182L46.8979 78.1202C46.6019 78.1212 46.3059 78.1222 46.0089 78.1222C45.6309 78.1232 45.2519 78.1252 44.8739 78.1282C44.5119 78.1312 44.1499 78.1312 43.7879 78.1322L43.3769 78.1362L42.9929 78.1352L42.6559 78.1362C42.2029 78.0762 41.9109 77.8892 41.6079 77.5542C41.3409 77.1162 41.3459 76.6992 41.3439 76.1942L41.3419 75.7602L41.3409 75.2852C41.3379 74.7582 41.3359 74.2312 41.3349 73.7042C41.3329 73.1342 41.3299 72.5632 41.3279 71.9932C41.3199 70.3702 41.3129 68.7482 41.3079 67.1262C41.3039 66.2302 41.2999 65.3342 41.2959 64.4382C41.2929 63.8732 41.2909 63.3072 41.2899 62.7422C41.2889 62.3882 41.2869 62.0332 41.2849 61.6792C41.2839 61.5162 41.2829 61.3542 41.2829 61.1912C41.2819 58.8782 40.9869 56.9342 39.3849 55.1522C37.5549 53.3622 34.9899 53.1752 32.5619 53.1862L32.1679 53.1872C31.7579 53.1882 31.3479 53.1892 30.9379 53.1902C30.6569 53.1912 30.3769 53.1912 30.0969 53.1922C29.4149 53.1932 28.7319 53.1952 28.0499 53.1972C28.6589 55.1522 29.5479 56.6182 31.3959 57.6602C32.8709 58.4082 34.3999 58.4932 36.0249 58.4642C37.8409 58.4342 37.8409 58.4342 38.4999 59.0112C38.7009 59.4112 38.7479 59.7372 38.7489 60.1832L38.7509 60.5602L38.7499 60.9702L38.7519 61.4052C38.7529 61.7972 38.7529 62.1902 38.7529 62.5832C38.7529 62.9112 38.7539 63.2392 38.7539 63.5672C38.7549 64.3422 38.7549 65.1162 38.7549 65.8912C38.7539 66.6892 38.7549 67.4872 38.7579 68.2852C38.7599 68.9712 38.7599 69.6572 38.7599 70.3432C38.7599 70.7522 38.7599 71.1622 38.7619 71.5712C38.7629 72.0282 38.7619 72.4852 38.7609 72.9412L38.7629 73.3512C38.7559 74.5002 38.7559 74.5002 38.3899 75.0252C37.9779 75.3982 37.5449 75.4172 37.0089 75.3992C36.5529 75.3222 36.3829 75.1522 36.0799 74.8052C35.8049 74.2022 35.8289 73.6112 35.8299 72.9622L35.8279 72.6042C35.8269 72.3482 35.8269 72.0922 35.8259 71.8362C35.8259 71.4312 35.8239 71.0272 35.8219 70.6222C35.8159 69.4722 35.8119 68.3212 35.8099 67.1712C35.8079 66.4662 35.8049 65.7622 35.7999 65.0582C35.7989 64.7902 35.7989 64.5212 35.7989 64.2532C35.7989 63.8782 35.7969 63.5042 35.7939 63.1292L35.7959 62.7922L35.7919 62.4832V62.2142C35.7389 61.9082 35.6329 61.7572 35.4199 61.5332C34.8409 61.3922 34.1439 61.3332 33.5499 61.4242C33.2769 61.8332 33.2989 62.1472 33.3019 62.6212L33.3009 62.8912C33.3009 63.1922 33.3009 63.4932 33.3019 63.7932C33.3019 64.0082 33.3009 64.2232 33.3009 64.4392C33.2999 64.9022 33.2999 65.3662 33.2999 65.8302C33.2999 66.5632 33.2989 67.2962 33.2969 68.0302C33.2909 70.1152 33.2889 72.2002 33.2879 74.2862C33.2879 75.4372 33.2859 76.5882 33.2819 77.7392C33.2799 78.4682 33.2799 79.1972 33.2809 79.9262C33.2809 80.3802 33.2799 80.8332 33.2769 81.2872C33.2769 81.4972 33.2769 81.7082 33.2779 81.9182C33.2789 82.2052 33.2779 82.4932 33.2759 82.7802L33.2789 83.0322C33.2699 83.5942 33.1349 83.9142 32.7799 84.3482C32.4759 84.5552 32.2239 84.6022 31.8589 84.6082L31.6159 84.6182C30.9809 84.4972 30.5579 84.0182 30.1469 83.5532L29.8579 83.2272L29.5899 82.9222L29.3949 82.7022C29.0989 82.3682 28.8069 82.0312 28.5179 81.6912L28.1809 81.2972L28.0079 81.0962C27.6559 80.6862 27.2959 80.2822 26.9289 79.8852C26.5799 79.5052 26.2429 79.1142 25.9189 78.7132C25.4929 78.1872 25.0419 77.6932 24.5789 77.2002C24.1489 76.7412 23.7519 76.2622 23.3579 75.7722C23.0109 75.3572 22.6419 74.9642 22.2709 74.5712C21.8139 74.0842 21.3989 73.5742 20.9919 73.0452L20.7899 72.8312H20.4599C20.2779 73.0132 20.2779 73.0132 20.1159 73.2492L19.9439 73.4842C19.6549 73.9342 19.6129 74.3962 19.6899 74.9152C19.9549 75.6312 20.4529 76.1652 20.9679 76.7152C21.2269 76.9952 21.4659 77.2842 21.7039 77.5812C22.1319 78.1102 22.5859 78.6062 23.0509 79.1012C23.4809 79.5602 23.8779 80.0402 24.2719 80.5292C24.5669 80.8812 24.8759 81.2162 25.1899 81.5512C25.6779 82.0712 26.1349 82.6062 26.5819 83.1622C26.8769 83.5142 27.1859 83.8492 27.4999 84.1832C27.9879 84.7032 28.4449 85.2382 28.8919 85.7942C29.1869 86.1462 29.4959 86.4812 29.8099 86.8162C30.2109 87.2432 30.5969 87.6752 30.9649 88.1322C31.3899 88.6602 31.8419 89.1572 32.3049 89.6522C32.6149 89.9812 32.9179 90.3182 33.2129 90.6612C33.5759 91.0752 33.8859 91.4092 34.4229 91.5802C34.8519 91.5892 35.0639 91.4942 35.4199 91.2582C35.8379 90.7532 35.7969 90.2452 35.7939 89.6222L35.7959 89.2922C35.7989 88.9322 35.7989 88.5722 35.7989 88.2112C35.7999 87.9612 35.8009 87.7102 35.8029 87.4592C35.8069 86.8002 35.8089 86.1392 35.8109 85.4792C35.8139 84.4242 35.8179 83.3682 35.8239 82.3122C35.8259 81.9442 35.8259 81.5762 35.8269 81.2072L35.8299 80.5272L35.8289 80.2182C35.8349 79.5092 35.8799 78.9222 36.3069 78.3292C36.7369 78.0182 37.0929 77.9542 37.6199 77.9862C38.0849 78.1492 38.3579 78.3302 38.6099 78.7542C38.7129 79.0622 38.7339 79.2522 38.7359 79.5722L38.7389 79.8752V80.2072L38.7419 80.5572C38.7439 80.9412 38.7449 81.3242 38.7459 81.7082L38.7479 82.1052C38.7499 82.8002 38.7509 83.4952 38.7519 84.1902C38.7539 84.9062 38.7579 85.6222 38.7619 86.3382C38.7649 86.8902 38.7659 87.4422 38.7659 87.9932C38.7669 88.2572 38.7679 88.5212 38.7699 88.7852C38.7929 91.9072 38.7929 91.9072 37.7379 93.2282C37.1189 93.8342 36.6459 94.0862 35.7729 94.0962L35.4969 94.1022C35.3049 94.1062 35.1129 94.1072 34.9219 94.1082C34.6319 94.1102 34.3429 94.1212 34.0529 94.1332C33.2049 94.1492 32.5169 94.1502 31.8489 93.5792C31.5929 93.3302 31.3599 93.0662 31.1299 92.7932C30.9969 92.6642 30.8609 92.5362 30.7239 92.4102C30.3319 92.0132 29.9899 91.5772 29.6399 91.1432C29.3579 90.8052 29.0649 90.4822 28.7649 90.1612C28.3849 89.7542 28.0209 89.3402 27.6719 88.9062C27.2489 88.3822 26.7989 87.8912 26.3389 87.4012C25.9089 86.9412 25.5119 86.4622 25.1179 85.9722C24.8229 85.6202 24.5139 85.2862 24.1999 84.9512C23.7119 84.4312 23.2549 83.8962 22.8079 83.3402C22.5129 82.9882 22.2039 82.6532 21.8899 82.3192C21.4019 81.7992 20.9449 81.2632 20.4979 80.7082C20.2029 80.3552 19.8939 80.0212 19.5799 79.6862C19.0009 79.0682 18.4509 78.4342 17.9299 77.7672L17.7129 77.4942C16.8039 76.2882 16.5239 74.9722 16.7199 73.4892C16.9529 72.5242 17.4069 71.8232 18.0399 71.0762C18.9289 69.9402 19.3719 68.8202 19.3749 67.3712L19.3759 67.1522C19.3769 66.9122 19.3769 66.6722 19.3769 66.4322L19.3789 65.9132C19.3799 65.5412 19.3809 65.1692 19.3819 64.7972C19.3829 64.2062 19.3849 63.6152 19.3879 63.0242C19.3949 61.3442 19.3999 59.6632 19.4039 57.9822C19.4059 57.0542 19.4089 56.1252 19.4139 55.1972C19.4159 54.7072 19.4179 54.2172 19.4179 53.7272C19.4199 50.6992 19.6139 47.8132 20.3499 44.8612L20.4109 44.6132C21.0889 41.9172 22.3469 39.2162 23.9799 36.9642L24.1269 36.7602C24.8619 35.7422 25.6329 34.7932 26.5099 33.8932L26.7089 33.6852C27.6809 32.6772 28.6749 31.7532 29.8099 30.9312L30.1579 30.6772C32.4009 29.0842 34.8599 27.8832 37.4499 26.9622L37.7699 26.8482L38.0529 26.7502C38.2989 26.6622 38.2989 26.6622 38.4999 26.4342C38.5219 26.1182 38.5299 25.8122 38.5279 25.4962L38.5299 25.1982C38.5309 24.8672 38.5299 24.5362 38.5299 24.2052L38.5319 23.4942C38.5329 22.9842 38.5329 22.4732 38.5339 21.9622C38.5339 21.1552 38.5359 20.3472 38.5379 19.5402C38.5429 17.5342 38.5469 15.5282 38.5489 13.5222C38.5509 11.9642 38.5539 10.4062 38.5579 8.84818C38.5609 8.04618 38.5619 7.24318 38.5609 6.44018C38.5609 5.94018 38.5629 5.44118 38.5649 4.94118C38.5659 4.71018 38.5659 4.47818 38.5649 4.24618C38.5639 3.93018 38.5659 3.61318 38.5679 3.29718L38.5649 3.01918C38.5709 2.48018 38.6439 2.11318 38.9399 1.64518C39.4059 1.20418 39.7679 1.08418 40.3979 1.08118ZM41.4699 4.38718C41.4049 4.68418 41.4049 4.68418 41.4159 5.01618L41.4129 5.40518L41.4169 5.83018C41.4139 6.38518 41.4139 6.94118 41.4179 7.49618C41.4199 7.92118 41.4199 8.34618 41.4199 8.77018C41.4199 9.48418 41.4219 10.1972 41.4249 10.9102C41.4279 11.7352 41.4289 12.5602 41.4289 13.3842C41.4289 14.1782 41.4299 14.9712 41.4319 15.7642C41.4329 16.1022 41.4329 16.4392 41.4329 16.7772C41.4329 17.1752 41.4349 17.5722 41.4369 17.9702C41.4379 18.1852 41.4379 18.4012 41.4379 18.6162L41.4409 19.0052L41.4419 19.3432C41.4709 19.6432 41.5239 19.8212 41.6899 20.0722C42.2779 20.3812 43.0219 20.3752 43.6699 20.2922C43.9159 20.1722 43.9159 20.1722 44.1099 19.9632C44.1759 19.6732 44.1759 19.6732 44.1649 19.3392L44.1679 18.9452L44.1649 18.5132C44.1679 17.9492 44.1679 17.3852 44.1649 16.8212C44.1639 16.3902 44.1649 15.9582 44.1649 15.5272C44.1649 14.8032 44.1639 14.0792 44.1609 13.3542C44.1579 12.5172 44.1579 11.6792 44.1599 10.8422C44.1609 10.0372 44.1599 9.23118 44.1579 8.42618C44.1579 8.08318 44.1579 7.74018 44.1579 7.39818C44.1589 6.99418 44.1579 6.59018 44.1549 6.18618C44.1539 5.96718 44.1549 5.74818 44.1559 5.52918L44.1529 5.13518L44.1519 4.79218C44.1039 4.45418 44.0129 4.30418 43.7799 4.05818C43.4139 3.90918 43.0169 3.92318 42.6249 3.91418L42.2499 3.90218C41.8289 3.96018 41.7299 4.05918 41.4699 4.38718ZM46.9699 4.27818C46.9039 4.56518 46.9039 4.56518 46.9149 4.89718L46.9119 5.28718L46.9149 5.71618C46.9119 6.27518 46.9119 6.83418 46.9149 7.39418C46.9159 7.82218 46.9149 8.24918 46.9149 8.67718C46.9149 9.39618 46.9159 10.1142 46.9189 10.8332C46.9219 11.6642 46.9219 12.4942 46.9209 13.3252C46.9189 14.1242 46.9199 14.9232 46.9219 15.7222C46.9219 16.0622 46.9219 16.4022 46.9219 16.7422C46.9209 17.1422 46.9219 17.5432 46.9249 17.9442C46.9249 18.1612 46.9249 18.3782 46.9239 18.5952L46.9269 18.9872L46.9279 19.3272C46.9769 19.6842 47.0889 19.8922 47.2999 20.1822C47.6589 20.3422 48.0659 20.3142 48.4549 20.3192L48.8299 20.3282C49.2139 20.2872 49.3389 20.2322 49.6099 19.9632C49.6759 19.6762 49.6759 19.6762 49.6649 19.3442L49.6679 18.9532L49.6649 18.5242C49.6679 17.9652 49.6679 17.4062 49.6649 16.8472C49.6639 16.4192 49.6649 15.9912 49.6649 15.5632C49.6649 14.8452 49.6639 14.1262 49.6609 13.4072C49.6589 12.5772 49.6579 11.7462 49.6599 10.9152C49.6609 10.1162 49.6599 9.31818 49.6579 8.51818C49.6579 8.17818 49.6579 7.83918 49.6579 7.49918C49.6589 7.09818 49.6579 6.69718 49.6549 6.29718C49.6539 6.08018 49.6549 5.86318 49.6559 5.64618L49.6529 5.25318L49.6519 4.91318C49.6029 4.55618 49.4909 4.34818 49.2799 4.05818C48.9209 3.89818 48.5139 3.92718 48.1249 3.92118L47.7499 3.91318C47.3659 3.95318 47.2409 4.00918 46.9699 4.27818ZM41.5799 23.4732C41.4389 23.8942 41.4449 24.2952 41.4419 24.7342L41.4359 24.9912C41.4229 25.4492 41.4229 25.4492 41.5999 25.8592C41.8829 26.0522 42.0609 26.0142 42.3999 25.9792L42.7619 25.9462L43.1469 25.9062C43.5379 25.8722 43.9279 25.8382 44.3189 25.8032C45.2159 25.7312 46.1069 25.7662 47.0049 25.8092L47.3819 25.8262C47.6299 25.8382 47.8789 25.8512 48.1279 25.8662L48.4729 25.8832L48.7839 25.9002C49.0829 25.8842 49.2499 25.8292 49.4999 25.6662C49.6939 25.2782 49.6299 24.8322 49.6309 24.4052L49.6349 24.1122V23.8332L49.6369 23.5762C49.6289 23.3372 49.6289 23.3372 49.3899 23.1442C49.0729 23.1092 49.0729 23.1092 48.6949 23.1132L48.4799 23.1122C48.2439 23.1102 48.0079 23.1102 47.7719 23.1112L47.2799 23.1092C46.9359 23.1082 46.5929 23.1082 46.2489 23.1092C45.8079 23.1102 45.3679 23.1082 44.9279 23.1052C44.5889 23.1032 44.2499 23.1032 43.9119 23.1042C43.7489 23.1042 43.5869 23.1032 43.4249 23.1022C43.1969 23.1012 42.9699 23.1012 42.7429 23.1032H42.3509C41.9869 23.1482 41.8369 23.2152 41.5799 23.4732ZM41.0299 28.9572L40.7589 29.0142C36.7939 29.8682 33.1139 31.6732 30.1399 34.4412C29.9889 34.5722 29.8379 34.7022 29.6859 34.8322C28.8279 35.5812 28.0949 36.4002 27.3899 37.2932L27.1499 37.5932C25.4349 39.7982 23.8599 42.5642 23.2099 45.3002L23.3199 45.6292L23.5179 45.5412L23.7939 45.4232L24.0609 45.3082C25.3279 44.8932 26.6189 44.9372 27.9359 44.9382L28.6119 44.9362C29.0829 44.9362 29.5529 44.9362 30.0239 44.9362C30.6219 44.9372 31.2189 44.9352 31.8169 44.9322C32.2809 44.9312 32.7459 44.9312 33.2109 44.9312C33.4309 44.9312 33.6509 44.9302 33.8709 44.9292C35.6739 44.9212 37.4499 45.0522 39.1809 45.5952L39.4539 45.6792C41.2759 46.2642 42.8619 47.2732 44.3299 48.4812C44.5359 48.6462 44.7419 48.8102 44.9489 48.9742L45.4299 49.3582C45.8949 49.2062 46.1619 48.9932 46.5089 48.6522C51.0319 44.4632 57.4089 44.6832 63.2089 44.8512C64.7409 44.9112 66.2519 45.1522 67.7599 45.4102C67.2989 41.7252 64.7709 38.2652 62.2599 35.6482L62.0869 35.4642C58.3839 31.5532 52.9189 28.8812 47.4979 28.6162C47.2529 28.6102 47.0069 28.6072 46.7619 28.6062L46.4889 28.6032C46.1999 28.6012 45.9109 28.6012 45.6229 28.6002H45.3229C43.8679 28.6022 42.4559 28.6442 41.0299 28.9572ZM23.1829 49.1732C22.5299 49.9732 22.3169 50.8492 22.3139 51.8622L22.3129 52.0862C22.3109 52.3342 22.3109 52.5812 22.3109 52.8282L22.3079 53.3602C22.3059 53.9432 22.3049 54.5252 22.3039 55.1072L22.3019 55.7102C22.2999 56.6542 22.2989 57.5982 22.2979 58.5422C22.2969 59.6302 22.2939 60.7172 22.2889 61.8052C22.2859 62.6472 22.2839 63.4892 22.2839 64.3312C22.2839 64.8342 22.2829 65.3362 22.2799 65.8382C22.2779 66.3112 22.2769 66.7842 22.2779 67.2572C22.2779 67.4302 22.2779 67.6032 22.2759 67.7762C22.2589 69.7672 22.9049 70.9832 24.2439 72.3992C24.5929 72.7672 24.9269 73.1492 25.2449 73.5442C25.6129 74.0012 25.9989 74.4332 26.3999 74.8602C26.8879 75.3792 27.3439 75.9142 27.7909 76.4702C28.1449 76.8942 28.5229 77.2932 28.9029 77.6952C29.2679 78.0862 29.5989 78.4862 29.8999 78.9302C30.0359 79.1162 30.0359 79.1162 30.3599 79.1932C30.3789 76.8282 30.3979 74.4632 30.4139 72.0992C30.4219 71.0012 30.4299 69.9032 30.4399 68.8052C30.4479 67.8492 30.4549 66.8922 30.4609 65.9352C30.4639 65.4282 30.4679 64.9212 30.4729 64.4152C30.4769 63.9382 30.4809 63.4612 30.4829 62.9842C30.4839 62.8092 30.4859 62.6342 30.4879 62.4592C30.4899 62.2202 30.4909 61.9812 30.4919 61.7422L30.4949 61.3372C30.4649 60.9152 30.3959 60.5782 30.0859 60.2772L29.8859 60.1422L29.6499 59.9752L29.3699 59.7782C27.0649 58.0682 25.6949 56.1562 25.1259 53.3142C25.0699 52.9072 25.0559 52.5042 25.0529 52.0932L25.0459 51.8632C25.0419 51.3732 25.0899 51.0532 25.4099 50.6742C25.8899 50.4182 26.3629 50.4232 26.8949 50.4252L27.1769 50.4232C27.4839 50.4222 27.7899 50.4222 28.0969 50.4222L28.7419 50.4212C29.1919 50.4202 29.6429 50.4202 30.0939 50.4202C30.6669 50.4212 31.2399 50.4192 31.8139 50.4172C32.2579 50.4152 32.7019 50.4152 33.1459 50.4152C33.3569 50.4152 33.5679 50.4152 33.7789 50.4142C36.7329 50.4002 39.3299 51.1182 41.5069 53.2272C44.1469 56.0082 44.1229 59.3292 44.1319 62.9122C44.1329 63.4012 44.1349 63.8892 44.1379 64.3782C44.1449 65.7662 44.1499 67.1542 44.1539 68.5422C44.1559 69.3122 44.1589 70.0822 44.1639 70.8522C44.1659 71.2582 44.1679 71.6642 44.1679 72.0702C44.1679 72.5212 44.1709 72.9732 44.1739 73.4242L44.1729 73.8302L44.1769 74.2022L44.1779 74.5252C44.2269 74.8532 44.3209 75.0052 44.5499 75.2442C44.7909 75.3062 44.7909 75.3062 45.0599 75.2912L45.3559 75.2882L45.6639 75.2782L45.9739 75.2752C46.4539 75.3092 46.4539 75.3092 46.8599 75.1342C46.8709 74.9392 46.8749 74.7432 46.8759 74.5472L46.8779 74.1612L46.8789 73.7332L46.8809 73.2862C46.8829 72.9642 46.8839 72.6412 46.8849 72.3192C46.8869 71.8072 46.8899 71.2962 46.8919 70.7842C46.8999 69.3292 46.9069 67.8742 46.9119 66.4192C46.9159 65.6162 46.9199 64.8132 46.9239 64.0112C46.9269 63.5862 46.9289 63.1622 46.9299 62.7382C46.9389 59.1532 47.0229 55.7522 49.7169 53.0692C51.4949 51.3772 53.8569 50.4412 56.3059 50.4372L56.5919 50.4362C56.9029 50.4342 57.2129 50.4332 57.5239 50.4332L58.1739 50.4312C58.6269 50.4302 59.0809 50.4292 59.5349 50.4292C60.1149 50.4282 60.6959 50.4252 61.2759 50.4222C61.7239 50.4202 62.1709 50.4202 62.6179 50.4202C62.8329 50.4192 63.0469 50.4182 63.2609 50.4172C63.5599 50.4152 63.8589 50.4152 64.1589 50.4162L64.4249 50.4132C64.9569 50.4172 65.3169 50.4952 65.7799 50.7842C66.2179 51.3472 66.0579 52.2992 65.9999 52.9782C65.6979 55.2332 64.7049 57.4272 62.9199 58.9012C62.5339 59.1932 62.1379 59.4712 61.7399 59.7462L61.3799 59.9982L61.0719 60.2082C60.6969 60.5622 60.6219 60.9442 60.5819 61.4502V61.8412L60.5809 62.0612C60.5799 62.3012 60.5809 62.5422 60.5819 62.7832L60.5799 63.3032C60.5789 63.7732 60.5799 64.2432 60.5799 64.7132C60.5809 65.2052 60.5799 65.6962 60.5799 66.1882C60.5799 67.0142 60.5799 67.8392 60.5809 68.6652C60.5829 69.6202 60.5819 70.5742 60.5809 71.5292C60.5799 72.3492 60.5799 73.1692 60.5799 73.9882C60.5809 74.4782 60.5809 74.9672 60.5799 75.4572C60.5789 75.9172 60.5799 76.3772 60.5809 76.8372C60.5809 77.0062 60.5809 77.1752 60.5809 77.3442C60.5799 77.5742 60.5809 77.8052 60.5819 78.0352V78.4262C60.6089 78.7432 60.6639 78.9252 60.8299 79.1932C61.2749 78.7752 61.6779 78.3382 62.0609 77.8632C62.4399 77.3922 62.8359 76.9452 63.2499 76.5052C63.7399 75.9832 64.1999 75.4452 64.6499 74.8872C64.9239 74.5572 65.2119 74.2412 65.5049 73.9282C65.9789 73.4202 66.4239 72.8962 66.8589 72.3542C67.1019 72.0602 67.3599 71.7852 67.6229 71.5082C68.4299 70.6242 68.7629 69.7582 68.7649 68.5712L68.7669 68.3472C68.7669 68.0992 68.7679 67.8522 68.7679 67.6052L68.7689 67.0722C68.7709 66.5892 68.7719 66.1072 68.7719 65.6252L68.7729 64.7202C68.7749 63.7752 68.7759 62.8312 68.7759 61.8862C68.7769 60.7982 68.7789 59.7092 68.7819 58.6202C68.7839 57.7782 68.7849 56.9352 68.7859 56.0932C68.7859 55.5902 68.7859 55.0872 68.7879 54.5842C68.7899 54.1112 68.7899 53.6382 68.7889 53.1652C68.7889 52.9922 68.7899 52.8182 68.7909 52.6452C68.7999 51.1312 68.6139 49.9552 67.5599 48.8122C66.6629 47.9632 65.6069 47.6972 64.4009 47.6952L64.1139 47.6942C63.7999 47.6922 63.4869 47.6912 63.1729 47.6912L62.8469 47.6902C62.2749 47.6882 61.7039 47.6872 61.1329 47.6872C60.5469 47.6862 59.9619 47.6832 59.3759 47.6802C58.9219 47.6782 58.4679 47.6772 58.0149 47.6772C57.7989 47.6772 57.5839 47.6762 57.3679 47.6752C55.6909 47.6642 54.0619 47.7782 52.4629 48.3302L52.2179 48.4132C50.8799 48.8932 49.6839 49.6282 48.6199 50.5652L48.3439 50.8002C47.8609 51.2202 47.4199 51.6542 46.9979 52.1352C46.2009 53.0332 46.2009 53.0332 45.5399 53.1422C44.6359 52.9922 43.9879 52.1332 43.4289 51.4632C41.5229 49.2802 38.6119 47.9812 35.7499 47.7132C35.4169 47.6972 35.0849 47.6952 34.7519 47.6942L34.4619 47.6912C34.1489 47.6892 33.8349 47.6882 33.5209 47.6872L33.1939 47.6852C32.6219 47.6832 32.0509 47.6822 31.4789 47.6812C30.8919 47.6792 30.3049 47.6762 29.7179 47.6712C29.2639 47.6682 28.8099 47.6672 28.3549 47.6672C28.1389 47.6672 27.9229 47.6652 27.7059 47.6632C25.9139 47.6472 24.4629 47.8012 23.1829 49.1732ZM55.2199 61.6432C55.1329 62.0202 55.1459 62.3962 55.1509 62.7812L55.1479 63.1412C55.1469 63.5402 55.1479 63.9392 55.1509 64.3382C55.1499 64.6232 55.1489 64.9092 55.1479 65.1942C55.1459 65.8902 55.1469 66.5862 55.1489 67.2822C55.1509 67.8472 55.1509 68.4132 55.1509 68.9792L55.1499 69.2222V69.7132C55.1489 71.1582 55.1509 72.6042 55.1539 74.0502C55.1579 75.4532 55.1579 76.8562 55.1569 78.2592C55.1539 80.0302 55.1539 81.8022 55.1569 83.5732C55.1579 84.1372 55.1569 84.7022 55.1569 85.2672C55.1559 86.0272 55.1569 86.7882 55.1599 87.5482C55.1609 87.8282 55.1609 88.1072 55.1599 88.3862C55.1589 88.7672 55.1609 89.1482 55.1629 89.5292L55.1609 89.8652C55.1679 90.5112 55.2329 90.8732 55.6599 91.3682C55.9869 91.6482 56.1779 91.6932 56.6089 91.7382C57.6029 91.5662 58.4379 90.2302 59.0279 89.4902C59.3229 89.1342 59.6339 88.7972 59.9499 88.4612C60.3509 88.0342 60.7369 87.6022 61.1049 87.1452C61.5249 86.6222 61.9729 86.1342 62.4309 85.6462C62.7729 85.2802 63.1009 84.9022 63.4149 84.5122C63.8349 83.9902 64.2829 83.5022 64.7409 83.0142C65.0829 82.6482 65.4109 82.2702 65.7249 81.8802C66.1449 81.3582 66.5929 80.8692 67.0509 80.3812C67.3929 80.0152 67.7209 79.6372 68.0349 79.2472C68.4029 78.7902 68.7889 78.3582 69.1899 77.9312C70.8269 76.3292 70.8269 76.3292 71.5299 74.2812C71.4329 73.4992 70.9909 73.0792 70.3999 72.6112C69.8139 73.2372 69.2339 73.8632 68.6949 74.5312C68.2949 75.0272 67.8729 75.4942 67.4389 75.9592C67.1159 76.3082 66.8059 76.6692 66.5089 77.0402C66.0629 77.5932 65.5849 78.1072 65.0979 78.6232C64.6529 79.0962 64.2399 79.5882 63.8339 80.0942C63.5409 80.4462 63.2329 80.7792 62.9199 81.1122C62.4279 81.6362 61.9669 82.1752 61.5149 82.7342C61.2459 83.0602 60.9689 83.3812 60.6859 83.6962L60.4189 83.9952C60.0439 84.3612 59.7639 84.4892 59.2419 84.4922C58.8059 84.4812 58.5309 84.4172 58.1899 84.1282C57.9119 83.7252 57.9389 83.3012 57.9409 82.8302L57.9389 82.5662C57.9379 82.2732 57.9379 81.9812 57.9379 81.6892C57.9379 81.4792 57.9369 81.2702 57.9359 81.0602C57.9339 80.6092 57.9339 80.1572 57.9329 79.7062C57.9319 78.9922 57.9299 78.2782 57.9269 77.5642C57.9219 76.0482 57.9179 74.5322 57.9149 73.0162C57.9109 71.3802 57.9069 69.7452 57.9009 68.1102C57.8989 67.4002 57.8969 66.6912 57.8969 65.9812C57.8959 65.5392 57.8939 65.0972 57.8929 64.6562C57.8919 64.4512 57.8919 64.2462 57.8919 64.0422C57.8919 63.7622 57.8909 63.4822 57.8889 63.2022L57.8899 62.9582C57.8859 62.4402 57.8009 62.0202 57.6399 61.5332C56.8379 61.3012 55.9059 61.0382 55.2199 61.6432Z" fill="#2B67A3"/>
</g>
<defs>
<clipPath id="clip0_58_2">
<rect width="88" height="94" fill="white"/>
</clipPath>
</defs>
</svg>
